<svg width="1052" height="699" viewBox="0 0 1052 699" fill="none" xmlns="http://www.w3.org/2000/svg">
<g clip-path="url(#clip0_48_217)">
<rect width="1052" height="699" fill="#908F8F"/>
<path d="M725.231 -21.6396H892.012V678.36H725.231V-21.6396Z" fill="#2C1410"/>
<rect x="594.674" y="412.36" width="376.577" height="285" fill="#6B492E"/>
<rect x="594.674" y="664.36" width="376.577" height="33" fill="#5C3F28"/>
<rect width="104.602" height="628.751" transform="matrix(0.966577 0.256376 -0.106111 0.994354 864.396 -114.64)" fill="#FCDBB4" fill-opacity="0.5"/>
<ellipse cx="869.749" cy="508.86" rx="72.0703" ry="23.5" fill="#FFCD82"/>
<path d="M753.908 -40.6396H580.336V698.36H753.908V-40.6396Z" fill="#9A0422"/>
<path d="M953.558 -21.0231L973.196 -24.5742L1047.81 699.899L1028.17 703.45L953.558 -21.0231Z" fill="#7B7A7A"/>
<path d="M966.723 -31H881.446V851H1052L966.723 -31Z" fill="#9A0422"/>
<path d="M920.689 -37H892.012V707H949.366L920.689 -37Z" fill="#B91D3B"/>
<path d="M944.17 -42.5143L930.037 -40.9195L977.814 702.471L1006.08 699.281L944.17 -42.5143Z" fill="#B91D3B"/>
<rect width="46.5317" height="768.775" transform="matrix(0.95944 0.281912 -0.165046 0.986286 581.189 -58.6396)" fill="#7B7A7A"/>
<path d="M718.601 -40.7038L683.724 -36.768L731.502 706.623L801.256 698.751L718.601 -40.7038Z" fill="#B91D3B"/>
<path d="M578.483 -38.7748L631.163 -32.2376L578.665 710.594L473.306 697.519L578.483 -38.7748Z" fill="#B91D3B"/>
<path d="M920.971 218.875L903.823 226.057L925.931 711.678L960.226 697.316L920.971 218.875Z" fill="#D83051"/>
<path d="M913.21 -115.64L898.535 -114.279L906.149 711.857L935.499 709.137L913.21 -115.64Z" fill="#B91D3B"/>
<path d="M683.712 220.757L670.066 225.683L670.032 706.648L697.324 696.796L683.712 220.757Z" fill="#6C0118"/>
<path d="M556.88 236.324L577.349 242.913L521.657 714.004L480.72 700.826L556.88 236.324Z" fill="#D83051"/>
<path d="M689.447 155.234L670.153 154.159L635.164 702.378L673.75 704.529L689.447 155.234Z" fill="#9A0422"/>
<path d="M651.389 84.4012L666.631 93.1271L625.159 717.004L594.674 699.552L651.389 84.4012Z" fill="#D83051"/>
<path d="M561.029 126.801L590.9 128.242L580.643 707.289L520.901 704.408L561.029 126.801Z" fill="#B91D3B"/>
<path d="M561.029 126.801L590.9 128.242L580.643 707.289L520.901 704.408L561.029 126.801Z" fill="#B91D3B"/>
<path d="M651.669 -40.7316L673.913 -38.8236L666.496 705.907L622.006 702.091L651.669 -40.7316Z" fill="#B91D3B"/>
</g>
<defs>
<clipPath id="clip0_48_217">
<rect width="1052" height="699" fill="white"/>
</clipPath>
</defs>
</svg>
