<svg width="1367" height="700" viewBox="0 0 1367 700" fill="none" xmlns="http://www.w3.org/2000/svg">
<rect width="1367" height="700" fill="#324E8E"/>
<path d="M1347 0H1367V700H1347V0Z" fill="#D9D9D9"/>
<path d="M0 700H106L0 0V700Z" fill="#0B2257"/>
<rect x="41" y="560" width="213" height="17" fill="#B91D3B"/>
<path d="M45 577H50L45 560V577Z" fill="#7E1328"/>
<path d="M249 577H244L249 560V577Z" fill="#7E1328"/>
<rect x="254" y="553" width="20" height="31" rx="2" fill="#D9D9D9"/>
<rect x="257" y="584" width="14" height="116" fill="#D9D9D9"/>
<rect x="249" y="557" width="5" height="22" fill="#2D2422"/>
<rect x="20" y="557" width="5" height="22" fill="#2D2422"/>
<rect x="20" y="557" width="5" height="22" fill="#2D2422"/>
<rect x="28" y="584" width="14" height="116" fill="#D9D9D9"/>
<rect x="25" y="553" width="20" height="31" rx="2" fill="#D9D9D9"/>
<rect x="28" y="553" width="7" height="31" fill="#BBB6B6"/>
<rect x="28" y="553" width="7" height="31" fill="#BBB6B6"/>
<rect x="28" y="553" width="7" height="31" fill="#BBB6B6"/>
<rect x="31" y="584" width="7" height="116" fill="#BBB6B6"/>
<rect x="260" y="584" width="7" height="116" fill="#BBB6B6"/>
<rect x="257" y="584" width="2" height="116" fill="#908F8F"/>
<rect x="269" y="584" width="2" height="116" fill="#908F8F"/>
<rect x="257" y="553" width="7" height="31" fill="#BBB6B6"/>
<rect x="30" y="553" width="2" height="31" fill="#918F8F"/>
<path d="M42 557L44 560.143V579L42 575.266V557Z" fill="#B91D3B" fill-opacity="0.22"/>
<rect x="259" y="553" width="2" height="31" fill="#918F8F"/>
<rect x="28" y="584" width="2" height="116" fill="#908F8F"/>
<rect x="40" y="584" width="2" height="116" fill="#908F8F"/>
<rect x="257" y="584" width="14" height="2" fill="#454444" fill-opacity="0.3"/>
<rect x="28" y="584" width="14" height="2" fill="#454444" fill-opacity="0.3"/>
</svg>
