<svg width="2593" height="697" viewBox="0 0 2593 697" fill="none" xmlns="http://www.w3.org/2000/svg">
<g clip-path="url(#clip0_42_97)">
<rect width="2593" height="697" fill="white"/>
<rect width="2593" height="697" fill="#D9D9D9"/>
<path d="M2160 -1.63965H2381V698.36H2160V-1.63965Z" fill="#2C1410"/>
<rect x="1987" y="432.36" width="499" height="285" fill="#6B492E"/>
<rect x="1987" y="684.36" width="499" height="33" fill="#5C3F28"/>
<rect width="136.632" height="631.421" transform="matrix(0.980549 0.196274 -0.140012 0.99015 2344.41 -94.6396)" fill="#FCDBB4" fill-opacity="0.5"/>
<ellipse cx="2351.5" cy="528.86" rx="95.5" ry="23.5" fill="#FFCD82"/>
<path d="M2198 -20.6396H1968V718.36H2198V-20.6396Z" fill="#9A0422"/>
<path d="M2462.55 -1.02307L2488.58 -4.57422L2587.44 719.899L2561.42 723.45L2462.55 -1.02307Z" fill="#ABA5A5"/>
<path d="M2480 -11H2367V871H2593L2480 -11Z" fill="#9A0422"/>
<path d="M2419 -17H2381V727H2457L2419 -17Z" fill="#B91D3B"/>
<path d="M2450.11 -22.5143L2431.39 -20.9195L2494.7 722.471L2532.15 719.281L2450.11 -22.5143Z" fill="#B91D3B"/>
<rect x="1969.13" y="-38.6396" width="60.595" height="776.649" transform="rotate(12.5026 1969.13 -38.6396)" fill="#ABA5A5"/>
<path d="M2151.22 -20.7038L2105 -16.768L2168.31 726.623L2260.74 718.751L2151.22 -20.7038Z" fill="#B91D3B"/>
<path d="M1965.55 -18.7748L2035.35 -12.2376L1965.79 730.594L1826.18 717.519L1965.55 -18.7748Z" fill="#B91D3B"/>
<path d="M2419.37 238.875L2396.65 246.057L2425.95 731.678L2471.39 717.316L2419.37 238.875Z" fill="#D83051"/>
<path d="M2409.09 -95.6396L2389.64 -94.2793L2399.73 731.857L2438.62 729.137L2409.09 -95.6396Z" fill="#B91D3B"/>
<path d="M2104.98 240.757L2086.9 245.683L2086.86 726.648L2123.02 716.796L2104.98 240.757Z" fill="#6C0118"/>
<path d="M1936.92 256.324L1964.04 262.913L1890.24 734.004L1836 720.826L1936.92 256.324Z" fill="#D83051"/>
<path d="M2112.58 175.234L2087.02 174.159L2040.65 722.378L2091.78 724.529L2112.58 175.234Z" fill="#9A0422"/>
<path d="M2062.15 104.401L2082.35 113.127L2027.4 737.004L1987 719.552L2062.15 104.401Z" fill="#D83051"/>
<path d="M1942.42 146.801L1982 148.242L1968.41 727.289L1889.24 724.408L1942.42 146.801Z" fill="#B91D3B"/>
<path d="M1942.42 146.801L1982 148.242L1968.41 727.289L1889.24 724.408L1942.42 146.801Z" fill="#B91D3B"/>
<path d="M2062.52 -20.7316L2092 -18.8236L2082.17 725.907L2023.22 722.091L2062.52 -20.7316Z" fill="#B91D3B"/>
</g>
<defs>
<clipPath id="clip0_42_97">
<rect width="2593" height="697" fill="white"/>
</clipPath>
</defs>
</svg>
