<svg width="1367" height="699" viewBox="0 0 1367 699" fill="none" xmlns="http://www.w3.org/2000/svg">
<g clip-path="url(#clip0_48_217)">
<rect width="1367" height="699" fill="#D9D9D9"/>
<path d="M942.387 -21.6396H1159.11V678.36H942.387V-21.6396Z" fill="#2C1410"/>
<rect x="772.737" y="412.36" width="489.335" height="285" fill="#6B492E"/>
<rect x="772.737" y="664.36" width="489.335" height="33" fill="#5C3F28"/>
<rect width="134.089" height="631.183" transform="matrix(0.979797 0.199997 -0.137352 0.990522 1123.22 -155.64)" fill="#FCDBB4" fill-opacity="0.5"/>
<ellipse cx="1130.18" cy="467.86" rx="93.6503" ry="23.5" fill="#FFCD82"/>
<path d="M979.651 -40.6396H754.105V698.36H979.651V-40.6396Z" fill="#9A0422"/>
<path d="M1239.08 -21.0231L1264.6 -24.5742L1361.55 699.899L1336.03 703.45L1239.08 -21.0231Z" fill="#7B7A7A"/>
<path d="M1256.19 -31H1145.38V851H1367L1256.19 -31Z" fill="#9A0422"/>
<path d="M1196.37 -37H1159.11V707H1233.63L1196.37 -37Z" fill="#B91D3B"/>
<path d="M1226.88 -42.5143L1208.52 -40.9195L1270.6 702.471L1307.33 699.281L1226.88 -42.5143Z" fill="#B91D3B"/>
<rect width="59.4769" height="775.95" transform="matrix(0.975375 0.220554 -0.212482 0.977165 755.215 -58.6396)" fill="#7B7A7A"/>
<path d="M933.772 -40.7038L888.452 -36.768L950.535 706.622L1041.18 698.751L933.772 -40.7038Z" fill="#B91D3B"/>
<path d="M751.699 -38.7748L820.152 -32.2376L751.935 710.594L615.027 697.519L751.699 -38.7748Z" fill="#B91D3B"/>
<path d="M1196.74 218.875L1174.45 226.057L1203.18 711.678L1247.75 697.316L1196.74 218.875Z" fill="#D83051"/>
<path d="M1186.65 -115.64L1167.58 -114.279L1177.48 711.857L1215.61 709.137L1186.65 -115.64Z" fill="#B91D3B"/>
<path d="M888.436 220.757L870.704 225.683L870.66 706.648L906.124 696.796L888.436 220.757Z" fill="#6C0118"/>
<path d="M723.626 236.324L750.224 242.913L677.856 714.004L624.662 700.826L723.626 236.324Z" fill="#D83051"/>
<path d="M895.888 155.234L870.817 154.159L825.35 702.378L875.491 704.529L895.888 155.234Z" fill="#9A0422"/>
<path d="M846.434 84.4012L866.241 93.1271L812.35 717.004L772.737 699.552L846.434 84.4012Z" fill="#D83051"/>
<path d="M729.017 126.801L767.833 128.242L754.505 707.289L676.873 704.407L729.017 126.801Z" fill="#B91D3B"/>
<path d="M729.017 126.801L767.833 128.242L754.505 707.289L676.873 704.407L729.017 126.801Z" fill="#B91D3B"/>
<path d="M846.798 -40.7316L875.703 -38.8236L866.065 705.907L808.254 702.091L846.798 -40.7316Z" fill="#B91D3B"/>
</g>
<defs>
<clipPath id="clip0_48_217">
<rect width="1367" height="699" fill="white"/>
</clipPath>
</defs>
</svg>
