<svg width="417" height="192" viewBox="0 0 417 192" fill="none" xmlns="http://www.w3.org/2000/svg">
<path d="M65.53 55.92C65.83 55.92 65.98 56.1 65.98 56.46C65.98 56.82 65.83 57 65.53 57C64.33 57 62.47 56.94 59.95 56.82C57.31 56.7 55.42 56.64 54.28 56.64C52.78 56.64 50.95 56.7 48.79 56.82C46.75 56.94 45.13 57 43.93 57C43.69 57 43.57 56.82 43.57 56.46C43.57 56.1 43.69 55.92 43.93 55.92C45.49 55.92 46.6 55.77 47.26 55.47C47.98 55.11 48.34 54.51 48.34 53.67C48.34 52.65 47.74 50.94 46.54 48.54L37.18 30.09H21.16L14.77 44.22C13.99 45.96 13.6 47.58 13.6 49.08C13.6 51.24 14.35 52.92 15.85 54.12C17.41 55.32 19.48 55.92 22.06 55.92C22.36 55.92 22.51 56.1 22.51 56.46C22.51 56.82 22.36 57 22.06 57C20.98 57 19.42 56.94 17.38 56.82C15.1 56.7 13.12 56.64 11.44 56.64C9.82 56.64 7.87 56.7 5.59 56.82C3.55 56.94 1.9 57 0.64 57C0.4 57 0.28 56.82 0.28 56.46C0.28 56.1 0.4 55.92 0.64 55.92C2.32 55.92 3.73 55.59 4.87 54.93C6.01 54.21 7.15 52.98 8.29 51.24C9.43 49.44 10.78 46.8 12.34 43.32L31.87 0.389999C31.99 0.209998 32.26 0.119997 32.68 0.119997C33.16 0.119997 33.43 0.209998 33.49 0.389999L55.99 44.67C58.09 48.93 59.83 51.87 61.21 53.49C62.59 55.11 64.03 55.92 65.53 55.92ZM22.33 27.57H35.92L28.72 13.35L22.33 27.57ZM92.3338 21.36C93.7138 21.36 95.0338 21.87 96.2938 22.89C97.6138 23.85 98.2738 25.02 98.2738 26.4C98.2738 27.66 97.8838 28.71 97.1038 29.55C96.3238 30.33 95.3038 30.72 94.0438 30.72C93.1438 30.72 92.3938 30.54 91.7938 30.18C91.2538 29.82 90.6838 29.28 90.0838 28.56C89.5438 27.96 89.0638 27.54 88.6438 27.3C88.2838 27 87.8338 26.85 87.2938 26.85C86.6938 26.85 86.0338 27.09 85.3138 27.57C84.6538 27.99 83.6038 28.92 82.1638 30.36V49.71C82.1638 52.11 82.7338 53.76 83.8738 54.66C85.0138 55.5 87.1138 55.92 90.1738 55.92C90.4138 55.92 90.5338 56.1 90.5338 56.46C90.5338 56.82 90.4138 57 90.1738 57C88.0738 57 86.4238 56.97 85.2238 56.91L77.9338 56.82L72.6238 56.91C71.7238 56.97 70.4938 57 68.9338 57C68.7538 57 68.6638 56.82 68.6638 56.46C68.6638 56.1 68.7538 55.92 68.9338 55.92C70.7938 55.92 72.0538 55.5 72.7138 54.66C73.3738 53.76 73.7038 52.11 73.7038 49.71V32.79C73.7038 30.93 73.4638 29.58 72.9838 28.74C72.5638 27.84 71.8738 27.39 70.9138 27.39C69.8938 27.39 68.4538 27.81 66.5938 28.65H66.4138C66.2338 28.65 66.0838 28.5 65.9638 28.2C65.9038 27.9 65.9338 27.72 66.0538 27.66L78.5638 21.54C78.9238 21.42 79.1338 21.36 79.1938 21.36C79.8538 21.36 80.4538 21.99 80.9938 23.25C81.5938 24.45 81.9538 26.1 82.0738 28.2C84.5338 25.68 86.5438 23.91 88.1038 22.89C89.7238 21.87 91.1338 21.36 92.3338 21.36ZM128.685 50.7C128.925 50.7 129.105 50.82 129.225 51.06C129.405 51.3 129.405 51.48 129.225 51.6C127.005 53.82 124.845 55.47 122.745 56.55C120.645 57.57 118.425 58.08 116.085 58.08C113.445 58.08 111.195 57.45 109.335 56.19C107.475 54.93 106.545 52.8 106.545 49.8V29.82C106.545 27.96 106.215 26.67 105.555 25.95C104.895 25.23 103.695 24.87 101.955 24.87C101.895 24.87 101.805 24.78 101.685 24.6C101.625 24.42 101.595 24.24 101.595 24.06C101.595 23.82 101.625 23.64 101.685 23.52C101.745 23.34 101.835 23.25 101.955 23.25C105.015 23.13 107.475 22.47 109.335 21.27C111.255 20.07 112.725 18.24 113.745 15.78C113.865 15.54 114.105 15.42 114.465 15.42C114.885 15.42 115.095 15.54 115.095 15.78V22.98C118.575 22.92 122.475 22.65 126.795 22.17C126.915 22.17 127.035 22.41 127.155 22.89C127.335 23.31 127.425 23.79 127.425 24.33C127.425 24.93 127.305 25.53 127.065 26.13C126.885 26.67 126.675 26.91 126.435 26.85C122.535 26.01 118.755 25.56 115.095 25.5V46.83C115.095 49.11 115.665 50.79 116.805 51.87C118.005 52.95 119.565 53.49 121.485 53.49C123.885 53.49 126.225 52.59 128.505 50.79L128.685 50.7ZM140.38 26.58C140.38 28.32 140.98 29.82 142.18 31.08C143.44 32.34 145.24 33.66 147.58 35.04C149.86 36.36 151.54 37.41 152.62 38.19C153.76 38.91 154.78 39.96 155.68 41.34C156.58 42.66 157.03 44.28 157.03 46.2C157.03 48.24 156.52 50.16 155.5 51.96C154.48 53.76 152.95 55.23 150.91 56.37C148.87 57.45 146.44 57.99 143.62 57.99C140.32 57.99 137.2 57.18 134.26 55.56C133.9 55.2 133.72 54.84 133.72 54.48L133.54 45.57C133.54 45.39 133.69 45.3 133.99 45.3C134.35 45.24 134.56 45.27 134.62 45.39C135.58 48.39 137.17 50.94 139.39 53.04C141.61 55.14 143.86 56.19 146.14 56.19C147.4 56.19 148.39 55.8 149.11 55.02C149.89 54.24 150.28 53.1 150.28 51.6C150.28 49.38 149.65 47.64 148.39 46.38C147.13 45.06 145.27 43.71 142.81 42.33C140.71 41.19 139.12 40.26 138.04 39.54C136.96 38.82 136 37.8 135.16 36.48C134.32 35.16 133.9 33.54 133.9 31.62C133.9 28.08 135.16 25.5 137.68 23.88C140.2 22.2 143.29 21.36 146.95 21.36C148.33 21.36 149.56 21.45 150.64 21.63C151.78 21.81 153.04 22.17 154.42 22.71C154.96 22.89 155.23 23.22 155.23 23.7C155.23 25.2 155.2 26.37 155.14 27.21L155.05 31.71C155.05 31.89 154.87 31.98 154.51 31.98C154.15 31.98 153.97 31.89 153.97 31.71C153.97 30.57 153.49 29.34 152.53 28.02C151.57 26.64 150.31 25.47 148.75 24.51C147.25 23.55 145.69 23.07 144.07 23.07C141.61 23.07 140.38 24.24 140.38 26.58ZM45.64 151.69C45.64 151.57 45.76 151.51 46 151.51C46.18 151.51 46.33 151.57 46.45 151.69C46.63 151.75 46.72 151.81 46.72 151.87C46.12 156.55 45.82 160.81 45.82 164.65C45.82 165.13 45.73 165.49 45.55 165.73C45.37 165.91 45.01 166 44.47 166H4.69C4.51 166 4.42 165.82 4.42 165.46C4.42 165.1 4.51 164.92 4.69 164.92C6.61 164.92 7.99 164.77 8.83 164.47C9.73 164.17 10.33 163.6 10.63 162.76C10.93 161.86 11.08 160.51 11.08 158.71V117.04C11.08 115.24 10.93 113.92 10.63 113.08C10.33 112.24 9.73 111.67 8.83 111.37C7.93 111.01 6.55 110.83 4.69 110.83C4.51 110.83 4.42 110.65 4.42 110.29C4.42 109.93 4.51 109.75 4.69 109.75H42.85C43.45 109.75 43.75 110.02 43.75 110.56L43.93 122.53C43.93 122.65 43.75 122.74 43.39 122.8C43.09 122.86 42.91 122.8 42.85 122.62C41.89 119.14 40.27 116.56 37.99 114.88C35.71 113.2 32.71 112.36 28.99 112.36H26.29C24.49 112.36 23.17 112.75 22.33 113.53C21.49 114.31 21.07 115.51 21.07 117.13V135.49H28.54C32.02 135.49 34.69 134.89 36.55 133.69C38.41 132.49 39.34 130.81 39.34 128.65C39.34 128.47 39.49 128.38 39.79 128.38C40.15 128.38 40.33 128.47 40.33 128.65L40.24 136.75L40.33 141.07C40.45 143.11 40.51 144.73 40.51 145.93C40.51 146.05 40.33 146.11 39.97 146.11C39.61 146.11 39.43 146.05 39.43 145.93C39.43 143.47 38.47 141.55 36.55 140.17C34.69 138.73 31.99 138.01 28.45 138.01H21.07V158.35C21.07 160.09 21.4 161.38 22.06 162.22C22.72 163.06 23.77 163.48 25.21 163.48H28.18C32.86 163.48 36.61 162.52 39.43 160.6C42.25 158.68 44.32 155.71 45.64 151.69ZM91.5182 131.26C91.6382 131.26 91.6982 131.44 91.6982 131.8C91.6982 132.16 91.6382 132.34 91.5182 132.34C89.7782 132.34 88.2182 133 86.8382 134.32C85.5182 135.64 84.2582 137.68 83.0582 140.44L71.9882 166C71.9282 166.3 71.5982 166.45 70.9982 166.45C70.5182 166.45 70.1882 166.3 70.0082 166L56.2382 138.73C54.9782 136.09 53.8682 134.38 52.9082 133.6C51.9482 132.76 50.7782 132.34 49.3982 132.34C49.2182 132.34 49.1282 132.16 49.1282 131.8C49.1282 131.44 49.2182 131.26 49.3982 131.26C50.4782 131.26 51.3782 131.29 52.0982 131.35L58.1282 131.44L65.0582 131.35C66.0782 131.29 67.4882 131.26 69.2882 131.26C69.4682 131.26 69.5582 131.44 69.5582 131.8C69.5582 132.16 69.4682 132.34 69.2882 132.34C65.8082 132.34 64.0682 133.03 64.0682 134.41C64.0682 134.77 64.2182 135.25 64.5182 135.85L74.5982 154.75L80.5382 140.35C81.0182 139.09 81.2582 138.01 81.2582 137.11C81.2582 135.61 80.7482 134.44 79.7282 133.6C78.7082 132.76 77.2982 132.34 75.4982 132.34C75.3782 132.34 75.3182 132.16 75.3182 131.8C75.3182 131.44 75.3782 131.26 75.4982 131.26C77.1182 131.26 78.3482 131.29 79.1882 131.35L84.5882 131.44L88.1882 131.35C88.9082 131.29 90.0182 131.26 91.5182 131.26ZM125.217 160.06C125.337 160.06 125.457 160.18 125.577 160.42C125.757 160.66 125.787 160.84 125.667 160.96C123.447 163.12 121.197 164.68 118.917 165.64C116.637 166.6 114.147 167.08 111.447 167.08C107.667 167.08 104.397 166.3 101.637 164.74C98.8769 163.12 96.7769 160.99 95.3369 158.35C93.8969 155.65 93.1769 152.77 93.1769 149.71C93.1769 146.23 94.0769 143.02 95.8769 140.08C97.6769 137.08 100.137 134.74 103.257 133.06C106.377 131.32 109.857 130.45 113.697 130.45C117.417 130.45 120.267 131.26 122.247 132.88C124.227 134.44 125.217 136.6 125.217 139.36C125.217 141.1 124.887 141.97 124.227 141.97H118.737L102.537 142.15C102.357 143.29 102.267 144.55 102.267 145.93C102.267 151.09 103.467 155.17 105.867 158.17C108.327 161.17 111.687 162.67 115.947 162.67C117.447 162.67 119.007 162.46 120.627 162.04C122.247 161.62 123.717 160.99 125.037 160.15L125.217 160.06ZM110.367 132.25C108.567 132.25 107.007 132.97 105.687 134.41C104.367 135.85 103.407 137.83 102.807 140.35L115.587 140.08C115.407 134.86 113.667 132.25 110.367 132.25ZM154.824 130.36C156.204 130.36 157.524 130.87 158.784 131.89C160.104 132.85 160.764 134.02 160.764 135.4C160.764 136.66 160.374 137.71 159.594 138.55C158.814 139.33 157.794 139.72 156.534 139.72C155.634 139.72 154.884 139.54 154.284 139.18C153.744 138.82 153.174 138.28 152.574 137.56C152.034 136.96 151.554 136.54 151.134 136.3C150.774 136 150.324 135.85 149.784 135.85C149.184 135.85 148.524 136.09 147.804 136.57C147.144 136.99 146.094 137.92 144.654 139.36V158.71C144.654 161.11 145.224 162.76 146.364 163.66C147.504 164.5 149.604 164.92 152.664 164.92C152.904 164.92 153.024 165.1 153.024 165.46C153.024 165.82 152.904 166 152.664 166C150.564 166 148.914 165.97 147.714 165.91L140.424 165.82L135.114 165.91C134.214 165.97 132.984 166 131.424 166C131.244 166 131.154 165.82 131.154 165.46C131.154 165.1 131.244 164.92 131.424 164.92C133.284 164.92 134.544 164.5 135.204 163.66C135.864 162.76 136.194 161.11 136.194 158.71V141.79C136.194 139.93 135.954 138.58 135.474 137.74C135.054 136.84 134.364 136.39 133.404 136.39C132.384 136.39 130.944 136.81 129.084 137.65H128.904C128.724 137.65 128.574 137.5 128.454 137.2C128.394 136.9 128.424 136.72 128.544 136.66L141.054 130.54C141.414 130.42 141.624 130.36 141.684 130.36C142.344 130.36 142.944 130.99 143.484 132.25C144.084 133.45 144.444 135.1 144.564 137.2C147.024 134.68 149.034 132.91 150.594 131.89C152.214 130.87 153.624 130.36 154.824 130.36ZM201.706 131.26C201.826 131.26 201.886 131.44 201.886 131.8C201.886 132.16 201.826 132.34 201.706 132.34C199.786 132.34 198.106 133.18 196.666 134.86C195.286 136.48 194.026 138.85 192.886 141.97L182.896 168.52C179.716 176.92 176.656 182.8 173.716 186.16C170.836 189.58 167.626 191.29 164.086 191.29C162.286 191.29 160.906 190.9 159.946 190.12C158.986 189.4 158.506 188.32 158.506 186.88C158.506 185.5 158.926 184.45 159.766 183.73C160.606 183.01 161.626 182.65 162.826 182.65C163.486 182.65 164.026 182.74 164.446 182.92C164.926 183.1 165.496 183.4 166.156 183.82C167.296 184.6 168.376 184.99 169.396 184.99C170.776 184.99 172.006 184.45 173.086 183.37C174.226 182.35 175.396 180.61 176.596 178.15C177.796 175.75 179.236 172.3 180.916 167.8L166.516 138.73C165.196 136.15 164.146 134.44 163.366 133.6C162.646 132.76 161.746 132.34 160.666 132.34C160.486 132.34 160.396 132.16 160.396 131.8C160.396 131.44 160.486 131.26 160.666 131.26C162.346 131.26 163.636 131.29 164.536 131.35L168.316 131.44L174.526 131.35C175.486 131.29 176.776 131.26 178.396 131.26C178.576 131.26 178.666 131.44 178.666 131.8C178.666 132.16 178.576 132.34 178.396 132.34C176.836 132.34 175.696 132.49 174.976 132.79C174.256 133.03 173.896 133.45 173.896 134.05C173.896 134.53 174.076 135.13 174.436 135.85L185.056 157.54L190.456 141.88C190.996 140.32 191.266 138.91 191.266 137.65C191.266 135.97 190.786 134.68 189.826 133.78C188.866 132.82 187.486 132.34 185.686 132.34C185.566 132.34 185.506 132.16 185.506 131.8C185.506 131.44 185.566 131.26 185.686 131.26C187.306 131.26 188.536 131.29 189.376 131.35L194.776 131.44L198.376 131.35C199.096 131.29 200.206 131.26 201.706 131.26ZM265.443 131.26C265.623 131.26 265.713 131.44 265.713 131.8C265.713 132.16 265.623 132.34 265.443 132.34C263.763 132.34 262.233 133 260.853 134.32C259.533 135.58 258.273 137.62 257.073 140.44L246.003 165.91C246.003 166.15 245.703 166.27 245.103 166.27C244.443 166.27 244.083 166.15 244.023 165.91L233.133 144.49L223.863 165.91C223.863 166.15 223.563 166.27 222.963 166.27C222.423 166.27 222.063 166.15 221.883 165.91L208.113 138.73C206.793 136.15 205.653 134.44 204.693 133.6C203.793 132.76 202.653 132.34 201.273 132.34C201.093 132.34 201.003 132.16 201.003 131.8C201.003 131.44 201.093 131.26 201.273 131.26C202.353 131.26 203.253 131.29 203.973 131.35L210.003 131.44L216.393 131.35C217.293 131.29 218.523 131.26 220.083 131.26C220.263 131.26 220.353 131.44 220.353 131.8C220.353 132.16 220.263 132.34 220.083 132.34C217.023 132.34 215.493 133 215.493 134.32C215.493 134.68 215.673 135.19 216.033 135.85L226.473 154.66L231.783 141.79L230.253 138.73C228.873 136.09 227.823 134.38 227.103 133.6C226.383 132.76 225.483 132.34 224.403 132.34C224.283 132.34 224.223 132.16 224.223 131.8C224.223 131.44 224.283 131.26 224.403 131.26C225.363 131.26 226.143 131.29 226.743 131.35L232.143 131.44L238.533 131.35C239.433 131.29 240.663 131.26 242.223 131.26C242.343 131.26 242.403 131.44 242.403 131.8C242.403 132.16 242.343 132.34 242.223 132.34C241.023 132.34 240.033 132.55 239.253 132.97C238.533 133.33 238.173 133.84 238.173 134.5C238.173 134.98 238.293 135.43 238.533 135.85L248.613 154.75L254.553 140.35C255.033 139.09 255.273 138.01 255.273 137.11C255.273 135.61 254.733 134.44 253.653 133.6C252.633 132.76 251.253 132.34 249.513 132.34C249.333 132.34 249.243 132.16 249.243 131.8C249.243 131.44 249.333 131.26 249.513 131.26C251.133 131.26 252.333 131.29 253.113 131.35L258.513 131.44L262.203 131.35C262.863 131.29 263.943 131.26 265.443 131.26ZM308.335 164.92C308.575 164.92 308.695 165.1 308.695 165.46C308.695 165.82 308.575 166 308.335 166C306.775 166 305.515 165.97 304.555 165.91L299.335 165.82L293.935 165.91C293.035 165.97 291.805 166 290.245 166C290.125 166 290.065 165.82 290.065 165.46C290.065 165.1 290.125 164.92 290.245 164.92C292.105 164.92 293.365 164.5 294.025 163.66C294.745 162.76 295.105 161.11 295.105 158.71V145.75C295.105 142.51 294.505 140.11 293.305 138.55C292.105 136.99 290.245 136.21 287.725 136.21C286.285 136.21 284.785 136.51 283.225 137.11C281.725 137.71 280.405 138.52 279.265 139.54V158.71C279.265 161.11 279.595 162.76 280.255 163.66C280.975 164.5 282.265 164.92 284.125 164.92C284.365 164.92 284.485 165.1 284.485 165.46C284.485 165.82 284.365 166 284.125 166C282.565 166 281.305 165.97 280.345 165.91L275.125 165.82L269.725 165.91C268.825 165.97 267.595 166 266.035 166C265.915 166 265.855 165.82 265.855 165.46C265.855 165.1 265.915 164.92 266.035 164.92C267.895 164.92 269.155 164.5 269.815 163.66C270.535 162.76 270.895 161.11 270.895 158.71V112.99C270.895 110.89 270.685 109.39 270.265 108.49C269.905 107.59 269.245 107.14 268.285 107.14C267.445 107.14 266.305 107.47 264.865 108.13H264.775C264.595 108.13 264.415 107.98 264.235 107.68C264.115 107.32 264.115 107.11 264.235 107.05L277.375 100.84L277.825 100.75C278.125 100.75 278.425 100.9 278.725 101.2C279.085 101.44 279.265 101.68 279.265 101.92V137.56C283.525 132.64 288.085 130.18 292.945 130.18C296.185 130.18 298.735 131.23 300.595 133.33C302.515 135.37 303.475 138.07 303.475 141.43V158.71C303.475 161.11 303.805 162.76 304.465 163.66C305.185 164.5 306.475 164.92 308.335 164.92ZM344.856 160.06C344.976 160.06 345.096 160.18 345.216 160.42C345.396 160.66 345.426 160.84 345.306 160.96C343.086 163.12 340.836 164.68 338.556 165.64C336.276 166.6 333.786 167.08 331.086 167.08C327.306 167.08 324.036 166.3 321.276 164.74C318.516 163.12 316.416 160.99 314.976 158.35C313.536 155.65 312.816 152.77 312.816 149.71C312.816 146.23 313.716 143.02 315.516 140.08C317.316 137.08 319.776 134.74 322.896 133.06C326.016 131.32 329.496 130.45 333.336 130.45C337.056 130.45 339.906 131.26 341.886 132.88C343.866 134.44 344.856 136.6 344.856 139.36C344.856 141.1 344.526 141.97 343.866 141.97H338.376L322.176 142.15C321.996 143.29 321.906 144.55 321.906 145.93C321.906 151.09 323.106 155.17 325.506 158.17C327.966 161.17 331.326 162.67 335.586 162.67C337.086 162.67 338.646 162.46 340.266 162.04C341.886 161.62 343.356 160.99 344.676 160.15L344.856 160.06ZM330.006 132.25C328.206 132.25 326.646 132.97 325.326 134.41C324.006 135.85 323.046 137.83 322.446 140.35L335.226 140.08C335.046 134.86 333.306 132.25 330.006 132.25ZM374.463 130.36C375.843 130.36 377.163 130.87 378.423 131.89C379.743 132.85 380.403 134.02 380.403 135.4C380.403 136.66 380.013 137.71 379.233 138.55C378.453 139.33 377.433 139.72 376.173 139.72C375.273 139.72 374.523 139.54 373.923 139.18C373.383 138.82 372.813 138.28 372.213 137.56C371.673 136.96 371.193 136.54 370.773 136.3C370.413 136 369.963 135.85 369.423 135.85C368.823 135.85 368.163 136.09 367.443 136.57C366.783 136.99 365.733 137.92 364.293 139.36V158.71C364.293 161.11 364.863 162.76 366.003 163.66C367.143 164.5 369.243 164.92 372.303 164.92C372.543 164.92 372.663 165.1 372.663 165.46C372.663 165.82 372.543 166 372.303 166C370.203 166 368.553 165.97 367.353 165.91L360.063 165.82L354.753 165.91C353.853 165.97 352.623 166 351.063 166C350.883 166 350.793 165.82 350.793 165.46C350.793 165.1 350.883 164.92 351.063 164.92C352.923 164.92 354.183 164.5 354.843 163.66C355.503 162.76 355.833 161.11 355.833 158.71V141.79C355.833 139.93 355.593 138.58 355.113 137.74C354.693 136.84 354.003 136.39 353.043 136.39C352.023 136.39 350.583 136.81 348.723 137.65H348.543C348.363 137.65 348.213 137.5 348.093 137.2C348.033 136.9 348.063 136.72 348.183 136.66L360.693 130.54C361.053 130.42 361.263 130.36 361.323 130.36C361.983 130.36 362.583 130.99 363.123 132.25C363.723 133.45 364.083 135.1 364.203 137.2C366.663 134.68 368.673 132.91 370.233 131.89C371.853 130.87 373.263 130.36 374.463 130.36ZM415.52 160.06C415.64 160.06 415.76 160.18 415.88 160.42C416.06 160.66 416.09 160.84 415.97 160.96C413.75 163.12 411.5 164.68 409.22 165.64C406.94 166.6 404.45 167.08 401.75 167.08C397.97 167.08 394.7 166.3 391.94 164.74C389.18 163.12 387.08 160.99 385.64 158.35C384.2 155.65 383.48 152.77 383.48 149.71C383.48 146.23 384.38 143.02 386.18 140.08C387.98 137.08 390.44 134.74 393.56 133.06C396.68 131.32 400.16 130.45 404 130.45C407.72 130.45 410.57 131.26 412.55 132.88C414.53 134.44 415.52 136.6 415.52 139.36C415.52 141.1 415.19 141.97 414.53 141.97H409.04L392.84 142.15C392.66 143.29 392.57 144.55 392.57 145.93C392.57 151.09 393.77 155.17 396.17 158.17C398.63 161.17 401.99 162.67 406.25 162.67C407.75 162.67 409.31 162.46 410.93 162.04C412.55 161.62 414.02 160.99 415.34 160.15L415.52 160.06ZM400.67 132.25C398.87 132.25 397.31 132.97 395.99 134.41C394.67 135.85 393.71 137.83 393.11 140.35L405.89 140.08C405.71 134.86 403.97 132.25 400.67 132.25Z" fill="black"/>
</svg>
